<?xml version="1.0" encoding="UTF-8"?>
<!-- Created with Inkscape (http://www.inkscape.org/) -->
<svg width="416.53" height="232.43" version="1.1" viewBox="0 0 416.53 232.43" xml:space="preserve" xmlns="http://www.w3.org/2000/svg" xmlns:xlink="http://www.w3.org/1999/xlink"><defs><clipPath id="vlpd"><path d="m0 252h396v-252h-396z"/></clipPath><linearGradient id="vlpa" x2="1" gradientTransform="matrix(279.86 0 0 -279.86 57.97 146.9)" gradientUnits="userSpaceOnUse"><stop style="stop-color:#100f0d" offset="0"/><stop style="stop-color:#100f0d" offset=".1"/><stop style="stop-color:#444141" offset=".25"/><stop style="stop-color:#444141" offset=".75"/><stop style="stop-color:#100f0d" offset=".9"/><stop style="stop-color:#100f0d" offset=".97065"/><stop style="stop-color:#100f0d" offset="1"/></linearGradient><linearGradient id="vlpc" x2="1" gradientTransform="matrix(263.74 0 0 263.74 64.031 165.73)" gradientUnits="userSpaceOnUse"><stop style="stop-color:#100f0d" offset="0"/><stop style="stop-color:#deddde" offset=".2"/><stop style="stop-color:#deddde" offset=".8"/><stop style="stop-color:#100f0d" offset="1"/></linearGradient><linearGradient id="vlpb" x2="1" gradientTransform="matrix(263.74 0 0 263.74 64.031 128.1)" gradientUnits="userSpaceOnUse"><stop style="stop-color:#100f0d" offset="0"/><stop style="stop-color:#deddde" offset=".2"/><stop style="stop-color:#deddde" offset=".8"/><stop style="stop-color:#100f0d" offset="1"/></linearGradient><clipPath id="vlpe"><path d="m0 252h396v-252h-396z"/></clipPath></defs><g transform="matrix(1.3333 0 0 -1.3333 -60.419 283.73)"><g clip-path="url(#vlpd)"><g transform="translate(339.99 212.8)"><path d="m0 0h-283.37c-6.236 0-11.309-5.073-11.309-11.308v-102.28c0-5.93 4.505-11.708 10.258-13.155l108.93-27.392c0.019-0.138 0.025-0.269 0.044-0.409 1.439-10.655 8.776-18.16 9.088-18.473 0.854-0.861 1.997-1.311 3.151-1.311 0.735 0 1.472 0.182 2.146 0.555 15.03 8.323 27.785 12.752 34.034 14.652l128.08 32.37c5.747 1.453 10.248 7.236 10.248 13.163v102.28c0 6.235-5.073 11.308-11.307 11.308" style="fill:#100f0d"/></g><g transform="translate(339.99 209.47)"><path d="m0 0h-283.37c-4.391 0-7.985-3.592-7.985-7.982v-102.28c0-4.39 3.486-8.86 7.743-9.93l107.86-27.122c-9e-3 0.586-4e-3 1.154 0.013 1.712l-107.47 27.023c-3.513 0.885-6.484 4.694-6.484 8.317v102.28c0 3.485 2.836 6.319 6.32 6.319h283.37c3.484 0 6.318-2.834 6.318-6.319v-102.28c0-3.624-2.969-7.438-6.483-8.327l-117.48-29.693c-0.377-0.739-0.735-1.405-1.054-1.981l118.94 30.062c4.256 1.075 7.738 5.549 7.738 9.939v102.28c0 4.39-3.591 7.982-7.98 7.982" style="fill:#fff"/></g><g transform="translate(211.13 64.456)"><path d="m0 0c-17.024-5.401-31.316-11.742-31.316-11.742s-2.229 2.374-3.273 6.865c-0.954 4.108 0.055 7.018 0.055 7.018 27.294 2.596 33.048 15.323 33.048 15.323-17.019-11.646-38.278-7.487-38.278-7.487s-3.724-6.031-2.425-15.584c1.254-9.304 7.841-15.944 7.841-15.944 22.109 12.244 39.297 16.25 39.297 16.25s12.576 18.822 4.153 31.88c0 0 3.321-12.351-9.102-26.579" style="fill:#cf181f"/></g><g transform="translate(197.31 81.765)"><path d="m0 0c1.053 0.213 6.322 1.629 8.414 3.902-18.4-4.067-23.779 1.728-12.216 8.198 1.191 0.645 2.377 1.182 3.542 1.611 10.606 3.817 20.913-1.103 20.913-1.103-2.33 3.699-9.017 5.175-9.133 5.206-3.071 0.71-7.194 0.927-10.355 0.475-4.873-0.7-10.904-2.706-16.334-7.624-11.204-10.143 2.32-13.272 15.169-10.665" style="fill:#cf181f"/></g></g><path d="m57.97 129.17h279.86v35.461h-279.86z" style="fill:url(#vlpa)"/><path d="m64.031 164.64h263.74v2.17h-263.74z" style="fill:url(#vlpc)"/><path d="m64.031 127.02h263.74v2.17h-263.74z" style="fill:url(#vlpb)"/><g transform="translate(16.687 6.0351)"><g transform="translate(-17.249 -6.7645)" clip-path="url(#vlpe)"><g transform="translate(334.22 156.74)"><path d="m0 0c0.213 0 0.339 0.044 0.339 0.29 0 0.229-0.246 0.245-0.426 0.245h-0.334v-0.535zm-0.421-1.311h-0.475v2.223h0.831c0.573 0 0.912-0.164 0.912-0.672 0-0.409-0.241-0.557-0.535-0.579l0.567-0.972h-0.563l-0.512 0.934h-0.225zm0.345 2.693c-0.82 0-1.481-0.634-1.481-1.584s0.661-1.59 1.481-1.584v-6e-3c0.797 0 1.474 0.64 1.474 1.59s-0.677 1.584-1.474 1.584m0-3.649c-1.099 0-2.075 0.76-2.075 2.065s0.976 2.064 2.075 2.064c1.092 0 2.069-0.759 2.069-2.064s-0.977-2.065-2.069-2.065" style="fill:#fff"/></g><g transform="translate(88.927 145.6)"><path d="m0 0h0.076l3.077 13.003h8.661l-6.799-21.039h-8.814l-3.153 12.215h-0.075l-3.116-12.215h-8.813l-6.799 21.039h8.661l3.076-13.003h0.077l3.267 13.003h7.407z" style="fill:#fff"/></g><g transform="translate(116.55 146.95)"><path d="m0 0c0 1.402-1.633 2.659-3.495 2.659-2.355 0-3.684-1.023-3.684-2.659zm-7.179-3.098c0-1.811 1.823-3.009 3.912-3.009 1.254 0 2.393 0.438 2.963 1.344h7.56c-1.368-3.799-6.382-5.055-11.017-5.055-6.382 0-11.32 2.805-11.32 7.948 0 5.026 4.9 8.24 11.282 8.24 7.37 0 11.815-3.915 11.701-9.468z" style="fill:#fff"/></g><g transform="translate(140.75 144.35)"><path d="m0 0c-2.583-0.964-6.002-0.497-6.002-2.484 0-0.76 0.95-1.286 2.507-1.286 2.773 0 3.685 1.666 3.495 3.77m0.798-6.78-0.38 1.637c-2.241-1.607-4.521-2.075-7.483-2.075-3.762 0-7.104 1.432-7.104 4.617 0 6.955 14.169 3.799 14.169 6.663 0 1.11-1.748 1.256-2.583 1.256-1.102 0-2.584-0.175-2.773-1.49h-7.598c0 3.243 3.001 5.143 10.865 5.143 9.421 0 9.99-2.689 9.99-6.341v-7.159c0-0.877 0.038-1.316 1.064-1.958v-0.293z" style="fill:#fff"/></g><g transform="translate(165.93 137.57)"><path d="m0 0c-10.371-0.438-11.625 0.117-11.625 5.406v6.4h-2.811v3.506h2.926v4.763h7.787v-4.763h3.799v-3.506h-3.799v-5.553c0-1.402 0.266-1.899 2.469-1.899h1.254z" style="fill:#fff"/></g><g transform="translate(169.66 158.61)"><path d="m0 0h7.901v-7.656c1.596 1.549 3.382 2.367 6.041 2.367 5.242 0 7.711-2.367 7.711-6.575v-9.176h-7.901v8.095c0 1.519-0.532 2.864-2.773 2.864-2.432 0-3.078-1.198-3.078-3.156v-7.803h-7.901z" style="fill:#fff"/></g><g transform="translate(209.43 146.95)"><path d="m0 0c0 1.402-1.634 2.659-3.495 2.659-2.356 0-3.685-1.023-3.685-2.659zm-7.18-3.098c0-1.811 1.824-3.009 3.913-3.009 1.253 0 2.393 0.438 2.963 1.344h7.56c-1.368-3.799-6.382-5.055-11.017-5.055-6.382 0-11.32 2.805-11.32 7.948 0 5.026 4.9 8.24 11.282 8.24 7.369 0 11.815-3.915 11.7-9.468z" style="fill:#fff"/></g><g transform="translate(220.48 152.88)"><path d="m0 0h7.18v-3.097h0.076c1.101 2.396 3.039 3.535 6.116 3.535 0.342 0 0.684-0.058 1.025-0.087v-6.078c-0.532 0.058-1.101 0.175-1.633 0.175-3.229 0-4.863-1.169-4.863-4.47v-5.29h-7.901z" style="fill:#fff"/></g><g transform="translate(236.55 158.61)"><path d="m0 0h25.071v-5.523h-8.052v-15.517h-8.965v15.517h-8.054z" style="fill:#cf181f"/></g><g transform="translate(274.85 146.95)"><path d="m0 0c0 1.402-1.634 2.659-3.495 2.659-2.356 0-3.685-1.023-3.685-2.659zm-7.18-3.098c0-1.811 1.824-3.009 3.913-3.009 1.253 0 2.393 0.438 2.963 1.344h7.56c-1.368-3.799-6.382-5.055-11.017-5.055-6.382 0-11.32 2.805-11.32 7.948 0 5.026 4.9 8.24 11.282 8.24 7.369 0 11.815-3.915 11.7-9.468z" style="fill:#cf181f"/></g><g transform="translate(299.39 147.04)"><path d="m0 0c-0.037 0.672-0.342 1.198-0.836 1.578-0.493 0.409-1.177 0.614-2.051 0.614-2.963 0-3.457-2.367-3.457-4.179 0-2.308 1.14-3.828 3.457-3.828 2.051 0 2.85 1.081 3.077 2.279h7.978c-0.685-4.646-5.547-6.37-11.055-6.37-6.42 0-11.358 2.776-11.358 7.948 0 5.231 4.786 8.241 11.358 8.241 5.319 0 10.333-1.754 10.903-6.283z" style="fill:#cf181f"/></g><g transform="translate(311.09 158.61)"><path d="m0 0h7.901v-7.656c1.596 1.549 3.381 2.367 6.04 2.367 5.243 0 7.711-2.367 7.711-6.575v-9.176h-7.901v8.095c0 1.519-0.531 2.864-2.772 2.864-2.432 0-3.078-1.198-3.078-3.156v-7.803h-7.901z" style="fill:#cf181f"/></g><g transform="translate(81.548 109.13)"><path d="m0 0c-1.62 0-2.785 0.325-3.637 1.331l1.603 1.273c0.549-0.636 1.421-0.849 2.411-0.849 1.23 0 1.977 0.439 2.137 1.247 0.07 0.354 0.024 0.651-0.162 0.85-0.174 0.184-0.393 0.283-0.874 0.354l-1.257 0.169c-0.89 0.128-1.511 0.396-1.905 0.836-0.415 0.481-0.541 1.133-0.373 1.981 0.357 1.799 2.016 3.06 4.326 3.06 1.469 0 2.467-0.341 3.217-1.176l-1.564-1.231c-0.554 0.608-1.348 0.693-2.052 0.693-1.11 0-1.766-0.58-1.902-1.274-0.051-0.255-0.015-0.525 0.172-0.722 0.173-0.185 0.487-0.34 0.911-0.396l1.226-0.17c0.951-0.127 1.515-0.383 1.886-0.78 0.47-0.509 0.578-1.246 0.401-2.138-0.385-1.954-2.329-3.058-4.564-3.058" style="fill:#fff"/><path d="m0 0c-1.62 0-2.785 0.325-3.637 1.331l1.603 1.273c0.549-0.636 1.421-0.849 2.411-0.849 1.23 0 1.977 0.439 2.137 1.247 0.07 0.354 0.024 0.651-0.162 0.85-0.174 0.184-0.393 0.283-0.874 0.354l-1.257 0.169c-0.89 0.128-1.511 0.396-1.905 0.836-0.415 0.481-0.541 1.133-0.373 1.981 0.357 1.799 2.016 3.06 4.326 3.06 1.469 0 2.467-0.341 3.217-1.176l-1.564-1.231c-0.554 0.608-1.348 0.693-2.052 0.693-1.11 0-1.766-0.58-1.902-1.274-0.051-0.255-0.015-0.525 0.172-0.722 0.173-0.185 0.487-0.34 0.911-0.396l1.226-0.17c0.951-0.127 1.515-0.383 1.886-0.78 0.47-0.509 0.578-1.246 0.401-2.138-0.385-1.954-2.329-3.058-4.564-3.058z" style="fill:none;stroke-miterlimit:10;stroke-width:.098;stroke:#fff"/></g><g transform="translate(95.928 115.98)"><path d="m0 0h-1.585l-0.443-2.244h1.585c0.767 0 1.342 0.449 1.475 1.116 0.132 0.668-0.264 1.128-1.032 1.128m-0.644-3.684h-1.669l-0.611-3.084h-1.695l1.622 8.196h3.365c1.792 0 2.635-1.162 2.36-2.556-0.276-1.392-1.58-2.556-3.372-2.556" style="fill:#fff"/><path d="m0 0h-1.585l-0.443-2.244h1.585c0.767 0 1.342 0.449 1.475 1.116 0.132 0.668-0.264 1.128-1.032 1.128zm-0.644-3.684h-1.669l-0.611-3.084h-1.695l1.622 8.196h3.365c1.792 0 2.635-1.162 2.36-2.556-0.276-1.392-1.58-2.556-3.372-2.556z" style="fill:none;stroke-miterlimit:10;stroke-width:.098;stroke:#fff"/></g><g transform="translate(107.52 115.61)"><path d="m0 0c-0.191 0.265-0.535 0.438-0.998 0.438s-0.889-0.173-1.185-0.438c-0.397-0.345-0.557-0.726-0.87-2.302-0.311-1.577-0.301-1.957-0.041-2.302 0.192-0.264 0.548-0.437 1.011-0.437s0.875 0.173 1.172 0.437c0.397 0.345 0.57 0.725 0.882 2.302 0.312 1.576 0.29 1.957 0.029 2.302m0.153-5.571c-0.723-0.575-1.531-0.898-2.518-0.898-0.988 0-1.68 0.323-2.176 0.898-0.713 0.83-0.486 1.853-0.206 3.269s0.459 2.441 1.5 3.27c0.724 0.575 1.544 0.896 2.531 0.896s1.667-0.321 2.163-0.896c0.714-0.829 0.498-1.854 0.218-3.27s-0.47-2.439-1.512-3.269" style="fill:#fff"/><path d="m0 0c-0.191 0.265-0.535 0.438-0.998 0.438s-0.889-0.173-1.185-0.438c-0.397-0.345-0.557-0.726-0.87-2.302-0.311-1.577-0.301-1.957-0.041-2.302 0.192-0.264 0.548-0.437 1.011-0.437s0.875 0.173 1.172 0.437c0.397 0.345 0.57 0.725 0.882 2.302 0.312 1.576 0.29 1.957 0.029 2.302zm0.153-5.571c-0.723-0.575-1.531-0.898-2.518-0.898-0.988 0-1.68 0.323-2.176 0.898-0.713 0.83-0.486 1.853-0.206 3.269s0.459 2.441 1.5 3.27c0.724 0.575 1.544 0.896 2.531 0.896s1.667-0.321 2.163-0.896c0.714-0.829 0.498-1.854 0.218-3.27s-0.47-2.439-1.512-3.269z" style="fill:none;stroke-miterlimit:10;stroke-width:.098;stroke:#fff"/></g><g transform="translate(118.03 115.98)"><path d="m0 0h-1.597l-0.427-2.163h1.596c0.744 0 1.321 0.448 1.446 1.081 0.126 0.634-0.274 1.082-1.018 1.082m-0.022-6.768-1.048 3.27h-1.219l-0.647-3.27h-1.695l1.622 8.196h3.402c1.768 0 2.59-1.14 2.319-2.51-0.228-1.15-1.112-1.864-2.011-2.152l1.239-3.534z" style="fill:#fff"/><path d="m0 0h-1.597l-0.427-2.163h1.596c0.744 0 1.321 0.448 1.446 1.081 0.126 0.634-0.274 1.082-1.018 1.082zm-0.022-6.768-1.048 3.27h-1.219l-0.647-3.27h-1.695l1.622 8.196h3.402c1.768 0 2.59-1.14 2.319-2.51-0.228-1.15-1.112-1.864-2.011-2.152l1.239-3.534z" style="fill:none;stroke-miterlimit:10;stroke-width:.098;stroke:#fff"/></g><g transform="translate(129.31 115.98)"><path d="m0 0-1.339-6.768h-1.694l1.339 6.768h-2.268l0.283 1.428h6.23l-0.283-1.428z" style="fill:#fff"/><path d="m0 0-1.339-6.768h-1.694l1.339 6.768h-2.268l0.283 1.428h6.23l-0.283-1.428z" style="fill:none;stroke-miterlimit:10;stroke-width:.098;stroke:#fff"/></g><g transform="translate(137.29 109.15)"><path d="m0 0c-1.316 0-2.264 0.265-2.956 1.082l1.303 1.036c0.446-0.517 1.155-0.69 1.96-0.69 1 0 1.606 0.356 1.736 1.012 0.058 0.288 0.02 0.53-0.132 0.691-0.14 0.149-0.319 0.23-0.71 0.288l-1.021 0.138c-0.723 0.104-1.229 0.322-1.549 0.678-0.336 0.392-0.439 0.922-0.302 1.613 0.289 1.462 1.638 2.485 3.516 2.485 1.194 0 2.006-0.275 2.614-0.955l-1.271-1.001c-0.451 0.495-1.095 0.564-1.667 0.564-0.903 0-1.435-0.472-1.547-1.036-0.041-0.207-0.011-0.426 0.14-0.588 0.141-0.148 0.397-0.275 0.74-0.322l0.997-0.138c0.772-0.103 1.231-0.31 1.533-0.633 0.382-0.414 0.47-1.012 0.327-1.738-0.315-1.589-1.895-2.486-3.711-2.486" style="fill:#fff"/><path d="m0 0c-1.316 0-2.264 0.265-2.956 1.082l1.303 1.036c0.446-0.517 1.155-0.69 1.96-0.69 1 0 1.606 0.356 1.736 1.012 0.058 0.288 0.02 0.53-0.132 0.691-0.14 0.149-0.319 0.23-0.71 0.288l-1.021 0.138c-0.723 0.104-1.229 0.322-1.549 0.678-0.336 0.392-0.439 0.922-0.302 1.613 0.289 1.462 1.638 2.485 3.516 2.485 1.194 0 2.006-0.275 2.614-0.955l-1.271-1.001c-0.451 0.495-1.095 0.564-1.667 0.564-0.903 0-1.435-0.472-1.547-1.036-0.041-0.207-0.011-0.426 0.14-0.588 0.141-0.148 0.397-0.275 0.74-0.322l0.997-0.138c0.772-0.103 1.231-0.31 1.533-0.633 0.382-0.414 0.47-1.012 0.327-1.738-0.315-1.589-1.895-2.486-3.711-2.486z" style="fill:none;stroke-miterlimit:10;stroke-width:.098;stroke:#fff"/></g><g transform="translate(149.19 109.13)"><path d="m0 0c-1.17 0-2.052 0.396-2.661 1.104-0.879 1.02-0.599 2.28-0.255 4.022 0.345 1.741 0.564 3.002 1.846 4.021 0.89 0.707 1.928 1.105 3.098 1.105 1.995 0 3.343-1.077 3.3-3.187h-2.115c-0.05 0.807-0.467 1.43-1.517 1.43-0.57 0-1.074-0.197-1.438-0.523-0.489-0.425-0.705-0.907-1.089-2.846-0.384-1.94-0.358-2.422-0.037-2.847 0.235-0.325 0.661-0.524 1.231-0.524 1.049 0 1.713 0.623 2.082 1.431h2.116c-0.792-2.111-2.581-3.186-4.561-3.186" style="fill:#fff"/><path d="m0 0c-1.17 0-2.052 0.396-2.661 1.104-0.879 1.02-0.599 2.28-0.255 4.022 0.345 1.741 0.564 3.002 1.846 4.021 0.89 0.707 1.928 1.105 3.098 1.105 1.995 0 3.343-1.077 3.3-3.187h-2.115c-0.05 0.807-0.467 1.43-1.517 1.43-0.57 0-1.074-0.197-1.438-0.523-0.489-0.425-0.705-0.907-1.089-2.846-0.384-1.94-0.358-2.422-0.037-2.847 0.235-0.325 0.661-0.524 1.231-0.524 1.049 0 1.713 0.623 2.082 1.431h2.116c-0.792-2.111-2.581-3.186-4.561-3.186z" style="fill:none;stroke-miterlimit:10;stroke-width:.098;stroke:#fff"/></g><g transform="translate(162.82 114.99)"><path d="m0 0-1.687-2.981h2.158zm0.88-5.778-0.225 1.45h-3.085l-0.81-1.45h-1.769l4.78 8.195h1.33l1.547-8.195z" style="fill:#fff"/><path d="m0 0-1.687-2.981h2.158zm0.88-5.778-0.225 1.45h-3.085l-0.81-1.45h-1.769l4.78 8.195h1.33l1.547-8.195z" style="fill:none;stroke-miterlimit:10;stroke-width:.098;stroke:#fff"/></g><g transform="translate(174.46 115.98)"><path d="m0 0h-1.597l-0.427-2.163h1.596c0.744 0 1.321 0.448 1.446 1.081 0.126 0.634-0.274 1.082-1.018 1.082m-0.022-6.768-1.048 3.27h-1.219l-0.647-3.27h-1.695l1.622 8.196h3.402c1.768 0 2.59-1.14 2.319-2.51-0.228-1.15-1.112-1.864-2.011-2.152l1.239-3.534z" style="fill:#fff"/><path d="m0 0h-1.597l-0.427-2.163h1.596c0.744 0 1.321 0.448 1.446 1.081 0.126 0.634-0.274 1.082-1.018 1.082zm-0.022-6.768-1.048 3.27h-1.219l-0.647-3.27h-1.695l1.622 8.196h3.402c1.768 0 2.59-1.14 2.319-2.51-0.228-1.15-1.112-1.864-2.011-2.152l1.239-3.534z" style="fill:none;stroke-miterlimit:10;stroke-width:.098;stroke:#fff"/></g><g transform="translate(191.47 109.13)"><path d="m0 0c-1.17 0-2.052 0.396-2.661 1.104-0.879 1.02-0.599 2.28-0.255 4.022 0.345 1.741 0.564 3.002 1.846 4.021 0.89 0.707 1.928 1.105 3.098 1.105 1.995 0 3.343-1.077 3.3-3.187h-2.115c-0.05 0.807-0.467 1.43-1.517 1.43-0.57 0-1.074-0.197-1.438-0.523-0.489-0.425-0.705-0.907-1.089-2.846-0.384-1.94-0.358-2.422-0.037-2.847 0.235-0.325 0.661-0.524 1.231-0.524 1.049 0 1.713 0.623 2.082 1.431h2.116c-0.792-2.111-2.581-3.186-4.561-3.186" style="fill:#fff"/><path d="m0 0c-1.17 0-2.052 0.396-2.661 1.104-0.879 1.02-0.599 2.28-0.255 4.022 0.345 1.741 0.564 3.002 1.846 4.021 0.89 0.707 1.928 1.105 3.098 1.105 1.995 0 3.343-1.077 3.3-3.187h-2.115c-0.05 0.807-0.467 1.43-1.517 1.43-0.57 0-1.074-0.197-1.438-0.523-0.489-0.425-0.705-0.907-1.089-2.846-0.384-1.94-0.358-2.422-0.037-2.847 0.235-0.325 0.661-0.524 1.231-0.524 1.049 0 1.713 0.623 2.082 1.431h2.116c-0.792-2.111-2.581-3.186-4.561-3.186z" style="fill:none;stroke-miterlimit:10;stroke-width:.098;stroke:#fff"/></g><g transform="translate(205.66 109.21)"><path d="m0 0 0.679 3.43h-2.938l-0.679-3.43h-1.695l1.622 8.195h1.696l-0.664-3.349h2.938l0.663 3.349h1.695l-1.622-8.195z" style="fill:#fff"/><path d="m0 0 0.679 3.43h-2.938l-0.679-3.43h-1.695l1.622 8.195h1.696l-0.664-3.349h2.938l0.663 3.349h1.695l-1.622-8.195z" style="fill:none;stroke-miterlimit:10;stroke-width:.098;stroke:#fff"/></g><g transform="translate(216.73 114.99)"><path d="m0 0-1.687-2.981h2.158zm0.88-5.778-0.225 1.45h-3.085l-0.81-1.45h-1.769l4.78 8.195h1.33l1.547-8.195z" style="fill:#fff"/><path d="m0 0-1.687-2.981h2.158zm0.88-5.778-0.225 1.45h-3.085l-0.81-1.45h-1.769l4.78 8.195h1.33l1.547-8.195z" style="fill:none;stroke-miterlimit:10;stroke-width:.098;stroke:#fff"/></g><g transform="translate(229.91 109.21)"><path d="m0 0 0.945 4.777-2.273-3.108h-1.146l-1.054 3.108-0.946-4.777h-1.695l1.622 8.195h1.671l1.391-4.431 3.131 4.431h1.671l-1.622-8.195z" style="fill:#fff"/><path d="m0 0 0.945 4.777-2.273-3.108h-1.146l-1.054 3.108-0.946-4.777h-1.695l1.622 8.195h1.671l1.391-4.431 3.131 4.431h1.671l-1.622-8.195z" style="fill:none;stroke-miterlimit:10;stroke-width:.098;stroke:#fff"/></g><g transform="translate(241.54 115.98)"><path d="m0 0h-1.585l-0.443-2.244h1.585c0.767 0 1.342 0.449 1.475 1.116 0.132 0.668-0.264 1.128-1.032 1.128m-0.644-3.684h-1.669l-0.611-3.084h-1.695l1.622 8.196h3.365c1.792 0 2.635-1.162 2.36-2.556-0.276-1.392-1.58-2.556-3.372-2.556" style="fill:#fff"/><path d="m0 0h-1.585l-0.443-2.244h1.585c0.767 0 1.342 0.449 1.475 1.116 0.132 0.668-0.264 1.128-1.032 1.128zm-0.644-3.684h-1.669l-0.611-3.084h-1.695l1.622 8.196h3.365c1.792 0 2.635-1.162 2.36-2.556-0.276-1.392-1.58-2.556-3.372-2.556z" style="fill:none;stroke-miterlimit:10;stroke-width:.098;stroke:#fff"/></g><g transform="translate(247.86 109.21)"><path d="m0 0 1.622 8.195h1.695l-1.622-8.195z" style="fill:#fff"/><path d="m0 0 1.622 8.195h1.695l-1.622-8.195z" style="fill:none;stroke-miterlimit:10;stroke-width:.098;stroke:#fff"/></g><g transform="translate(260.14 115.61)"><path d="m0 0c-0.192 0.265-0.536 0.438-0.999 0.438s-0.887-0.173-1.184-0.438c-0.397-0.345-0.557-0.726-0.87-2.302-0.311-1.577-0.301-1.957-0.041-2.302 0.192-0.264 0.548-0.437 1.011-0.437s0.875 0.173 1.172 0.437c0.397 0.345 0.57 0.725 0.882 2.302 0.312 1.576 0.29 1.957 0.029 2.302m0.153-5.571c-0.723-0.575-1.531-0.898-2.518-0.898-0.988 0-1.68 0.323-2.176 0.898-0.713 0.83-0.486 1.853-0.206 3.269s0.459 2.441 1.5 3.27c0.724 0.575 1.544 0.896 2.531 0.896s1.667-0.321 2.163-0.896c0.714-0.829 0.498-1.854 0.218-3.27s-0.47-2.439-1.512-3.269" style="fill:#fff"/><path d="m0 0c-0.192 0.265-0.536 0.438-0.999 0.438s-0.887-0.173-1.184-0.438c-0.397-0.345-0.557-0.726-0.87-2.302-0.311-1.577-0.301-1.957-0.041-2.302 0.192-0.264 0.548-0.437 1.011-0.437s0.875 0.173 1.172 0.437c0.397 0.345 0.57 0.725 0.882 2.302 0.312 1.576 0.29 1.957 0.029 2.302zm0.153-5.571c-0.723-0.575-1.531-0.898-2.518-0.898-0.988 0-1.68 0.323-2.176 0.898-0.713 0.83-0.486 1.853-0.206 3.269s0.459 2.441 1.5 3.27c0.724 0.575 1.544 0.896 2.531 0.896s1.667-0.321 2.163-0.896c0.714-0.829 0.498-1.854 0.218-3.27s-0.47-2.439-1.512-3.269z" style="fill:none;stroke-miterlimit:10;stroke-width:.098;stroke:#fff"/></g><g transform="translate(271.15 109.21)"><path d="m0 0-2.442 5.03-0.996-5.03h-1.695l1.622 8.195h1.512l2.445-5.018 0.993 5.018h1.695l-1.622-8.195z" style="fill:#fff"/><path d="m0 0-2.442 5.03-0.996-5.03h-1.695l1.622 8.195h1.512l2.445-5.018 0.993 5.018h1.695l-1.622-8.195z" style="fill:none;stroke-miterlimit:10;stroke-width:.098;stroke:#fff"/></g><g transform="translate(280.35 109.15)"><path d="m0 0c-1.316 0-2.264 0.265-2.956 1.082l1.303 1.036c0.446-0.517 1.155-0.69 1.96-0.69 1 0 1.607 0.356 1.736 1.012 0.058 0.288 0.02 0.53-0.132 0.691-0.14 0.149-0.319 0.23-0.71 0.288l-1.021 0.138c-0.723 0.104-1.229 0.322-1.549 0.678-0.336 0.392-0.439 0.922-0.302 1.613 0.289 1.462 1.638 2.485 3.516 2.485 1.194 0 2.006-0.275 2.614-0.955l-1.271-1.001c-0.451 0.495-1.094 0.564-1.668 0.564-0.903 0-1.434-0.472-1.545-1.036-0.041-0.207-0.012-0.426 0.138-0.588 0.142-0.148 0.397-0.275 0.741-0.322l0.998-0.138c0.771-0.103 1.23-0.31 1.532-0.633 0.382-0.414 0.47-1.012 0.327-1.738-0.315-1.589-1.895-2.486-3.711-2.486" style="fill:#fff"/><path d="m0 0c-1.316 0-2.264 0.265-2.956 1.082l1.303 1.036c0.446-0.517 1.155-0.69 1.96-0.69 1 0 1.607 0.356 1.736 1.012 0.058 0.288 0.02 0.53-0.132 0.691-0.14 0.149-0.319 0.23-0.71 0.288l-1.021 0.138c-0.723 0.104-1.229 0.322-1.549 0.678-0.336 0.392-0.439 0.922-0.302 1.613 0.289 1.462 1.638 2.485 3.516 2.485 1.194 0 2.006-0.275 2.614-0.955l-1.271-1.001c-0.451 0.495-1.094 0.564-1.668 0.564-0.903 0-1.434-0.472-1.545-1.036-0.041-0.207-0.012-0.426 0.138-0.588 0.142-0.148 0.397-0.275 0.741-0.322l0.998-0.138c0.771-0.103 1.23-0.31 1.532-0.633 0.382-0.414 0.47-1.012 0.327-1.738-0.315-1.589-1.895-2.486-3.711-2.486z" style="fill:none;stroke-miterlimit:10;stroke-width:.098;stroke:#fff"/></g><g transform="translate(293.1 109.21)"><path d="m0 0 0.679 3.43h-2.938l-0.679-3.43h-1.695l1.622 8.195h1.696l-0.664-3.349h2.938l0.663 3.349h1.695l-1.622-8.195z" style="fill:#fff"/><path d="m0 0 0.679 3.43h-2.938l-0.679-3.43h-1.695l1.622 8.195h1.696l-0.664-3.349h2.938l0.663 3.349h1.695l-1.622-8.195z" style="fill:none;stroke-miterlimit:10;stroke-width:.098;stroke:#fff"/></g><g transform="translate(300.11 109.21)"><path d="m0 0 1.622 8.195h1.695l-1.622-8.195z" style="fill:#fff"/><path d="m0 0 1.622 8.195h1.695l-1.622-8.195z" style="fill:none;stroke-miterlimit:10;stroke-width:.098;stroke:#fff"/></g><g transform="translate(311.74 115.98)"><path d="m0 0h-1.585l-0.443-2.244h1.585c0.767 0 1.342 0.449 1.475 1.116 0.132 0.668-0.264 1.128-1.032 1.128m-0.644-3.684h-1.669l-0.611-3.084h-1.695l1.622 8.196h3.365c1.792 0 2.635-1.162 2.36-2.556-0.276-1.392-1.58-2.556-3.372-2.556" style="fill:#fff"/><path d="m0 0h-1.585l-0.443-2.244h1.585c0.767 0 1.342 0.449 1.475 1.116 0.132 0.668-0.264 1.128-1.032 1.128zm-0.644-3.684h-1.669l-0.611-3.084h-1.695l1.622 8.196h3.365c1.792 0 2.635-1.162 2.36-2.556-0.276-1.392-1.58-2.556-3.372-2.556z" style="fill:none;stroke-miterlimit:10;stroke-width:.098;stroke:#fff"/></g><g transform="translate(357.71 89.127)"><path d="m0 0c0-1.695-1.375-3.071-3.07-3.071-1.697 0-3.072 1.376-3.072 3.071s1.375 3.071 3.072 3.071c1.695 0 3.07-1.376 3.07-3.071" style="fill:#100f0d"/></g><g transform="translate(353.11 89.883)"><path d="m0 0h-0.634v0.379h1.698v-0.379h-0.635v-1.89h-0.429z" style="fill:#fff"/></g><g transform="translate(355.91 88.286)"><path d="m0 0h-0.545l-0.42 1.176-0.038-1.47h-0.438l0.101 2.27h0.481l0.587-1.613 0.585 1.613h0.482l0.101-2.27h-0.438l-0.039 1.47z" style="fill:#fff"/></g><g transform="translate(178.29 199.4)"><path d="m0 0h-28.622l-12.766-24.71h28.409z" style="fill:#100f0d"/></g><g transform="translate(164.92 175.33)"><path d="m0 0h-26.964l12.101 23.424h27.167z" style="fill:#fff"/></g><g transform="translate(163.07 193.68)"><path d="m0 0h-1.915l-7.47-17.921h-2.914l7.528 17.867h-2.096l5.578 4.341z" style="fill-rule:evenodd;fill:#cf181f"/></g><g transform="translate(158.37 198.33)"><path d="m0 0s-4.113-2.271-5.642-9.896c-0.841-4.197-1.446-8.131-6.017-12.671h-8.049l11.659 22.567z" style="fill:#100f0d"/></g><g transform="translate(156.63 175.76)"><path d="m0 0s3.406 1.969 5.175 11.104c1.62 8.362 6.679 11.463 6.679 11.463h8.032l-11.854-22.567z" style="fill:#100f0d"/></g><g transform="translate(183.95 194.78)"><path d="m0 0-8.979-17.547h5.928l8.95 17.547z" style="fill:#cf181f"/></g><g transform="translate(206.88 194.79)"><path d="m0 0-7.783-7.14-0.756 7.14h-6.049l-8.954-17.55h5.894l4.663 9.163 1.344-8.566 8.849 8.296-4.539-8.893h5.9l8.952 17.55z" style="fill:#cf181f"/></g><g transform="translate(233.49 184.98)"><path d="m0 0c0 0.132-4e-3 0.269-0.036 0.412-0.098 0.609-0.573 1.121-1.173 1.265l-12.097 3.344 0.234 0.449h16.206l2.215 4.335h-19.665c-0.376 0-0.75-0.076-1.121-0.225-0.362-0.142-0.71-0.339-1.05-0.585-0.343-0.248-0.657-0.536-0.946-0.857-0.29-0.33-0.527-0.679-0.714-1.047l-1.437-2.813c-0.269-0.507-0.414-1.009-0.414-1.486 0-0.146 0.013-0.288 0.045-0.425 0.1-0.592 0.568-1.102 1.168-1.245l12.098-3.347-0.605-1.18h-16.215l-2.216-4.338h19.676c0.362 0 0.731 0.076 1.107 0.225 0.367 0.148 0.722 0.341 1.062 0.591 0.343 0.243 0.653 0.529 0.938 0.838 0.287 0.324 0.529 0.681 0.72 1.062l1.824 3.572c0.25 0.5 0.396 0.978 0.396 1.455" style="fill:#cf181f"/></g><g transform="translate(255.24 177.23)"><path d="m0 0-6.25 17.547h-7.406c-0.288-0.326-8.988-17.547-8.988-17.547h5.898l6.748 13.213 4.686-13.212z" style="fill:#cf181f"/></g><g transform="translate(256.75 178.31)"><path d="m0 0h-0.143v-0.254h0.143c0.081 0 0.138 0.055 0.138 0.127 0 0.071-0.057 0.127-0.138 0.127m0.138-0.711-0.173 0.334h-0.108v-0.334h-0.155v0.842h0.317c0.16 0 0.271-0.118 0.271-0.258 0-0.119-0.073-0.196-0.166-0.228l0.188-0.356zm-0.164 1.056c-0.349 0-0.625-0.281-0.625-0.636s0.276-0.636 0.625-0.636c0.348 0 0.623 0.281 0.623 0.636s-0.275 0.636-0.623 0.636m0-1.416c-0.431 0-0.781 0.349-0.781 0.78s0.35 0.78 0.781 0.78c0.43 0 0.78-0.349 0.78-0.78s-0.35-0.78-0.78-0.78" style="fill:#cf181f"/></g></g></g></g></svg>
