<?xml version="1.0" encoding="UTF-8"?>
<svg width="124mm" height="31.6mm" version="1.1" viewBox="0 0 124 31.6" xmlns="http://www.w3.org/2000/svg" xmlns:dc="http://purl.org/dc/elements/1.1/" xmlns:rdf="http://www.w3.org/1999/02/22-rdf-syntax-ns#">
<title>IndyCar Series textlogo</title>
 <metadata>
  <rdf:RDF>
    <dc:format>image/svg+xml</dc:format>
    <dc:type rdf:resource="http://purl.org/dc/dcmitype/StillImage"/>
    <dc:title/>
  </rdf:RDF>
 </metadata>
 <g transform="translate(-168 -14.1)">
  <g transform="matrix(1.27 0 0 1.27 164 -52.6)">
   <path transform="translate(-8e-5 -.047)" d="m22.9 76.1 0.157-0.912h1.33l-0.157 0.856c-0.0565 0.311 0.0339 0.423 0.338 0.423h2.07c0.293 0 0.428-0.112 0.473-0.423l0.169-0.957c0.0791-0.389-0.0565-0.499-0.406-0.578l-2.01-0.445c-0.901-0.189-1.5-0.489-1.31-1.57l0.192-1.07a1.65 1.65 0 0 1 1.81-1.56h2.33c1.05 0 1.45 0.501 1.27 1.56l-0.157 0.834h-1.32l0.135-0.779c0.0565-0.312-0.0339-0.423-0.327-0.423h-1.93c-0.293 0-0.428 0.111-0.485 0.423l-0.146 0.845c-0.067 0.402 0.0565 0.512 0.406 0.579l2.02 0.445c0.89 0.2 1.49 0.501 1.3 1.57l-0.203 1.18a1.67 1.67 0 0 1-1.83 1.56h-2.48c-1.05 0-1.45-0.499-1.26-1.56"/>
   <polygon points="38.7 76.4 38.5 77.6 33.4 77.6 34.7 69.8 39.9 69.8 39.6 71.1 35.9 71.1 35.5 73 38.6 73 38.4 74.2 35.3 74.2 34.9 76.4"/>
   <path transform="translate(-8e-5 -.047)" d="m50.2 71.4-0.304 1.74a1.63 1.63 0 0 1-1.48 1.53l0.913 2.96h-1.4l-0.913-2.9h-1.6l-0.518 2.9h-1.35l1.39-7.79h3.99c1.05 0 1.45 0.501 1.27 1.56m-1.69-0.345h-2.42l-0.45 2.48h2.43c0.293 0 0.417-0.111 0.473-0.423l0.293-1.65c0.0565-0.301-0.0339-0.411-0.327-0.411"/>
   <polygon points="57.1 69.8 55.7 77.6 54.4 77.6 55.7 69.8"/>
   <polygon points="66.5 76.4 66.3 77.6 61.2 77.6 62.5 69.8 67.7 69.8 67.4 71.1 63.7 71.1 63.3 73 66.4 73 66.2 74.2 63.1 74.2 62.7 76.4"/>
   <path transform="translate(-8e-5 -.047)" d="m71.3 76.1 0.157-0.912h1.33l-0.157 0.856c-0.0565 0.311 0.0339 0.423 0.338 0.423h2.07c0.293 0 0.428-0.112 0.473-0.423l0.169-0.957c0.0791-0.389-0.0565-0.499-0.406-0.578l-2.01-0.445c-0.901-0.189-1.5-0.489-1.31-1.57l0.192-1.07a1.65 1.65 0 0 1 1.81-1.56h2.33c1.05 0 1.45 0.501 1.27 1.56l-0.157 0.834h-1.32l0.135-0.779c0.0558-0.312-0.0339-0.423-0.327-0.423h-1.93c-0.293 0-0.428 0.111-0.484 0.423l-0.147 0.845c-0.067 0.402 0.0565 0.512 0.406 0.579l2.02 0.445c0.89 0.2 1.49 0.501 1.3 1.57l-0.203 1.18a1.67 1.67 0 0 1-1.83 1.56h-2.48c-1.05 0-1.45-0.499-1.26-1.56"/>
   <polygon points="9.78 52.7 7.07 67.5 2.93 67.5 5.64 52.7"/>
   <polygon points="22.1 52.7 26.2 52.7 23.4 67.5 20 67.5 16 59 14.5 67.5 10.4 67.5 13.2 52.7 17.1 52.7 20.7 60.6"/>
   <path transform="translate(-8e-5 -.047)" d="m29.5 52.8h9.04c1.98 0 2.78 0.93 2.4 2.87l-1.65 9.04a3.13 3.13 0 0 1-3.46 2.87h-9.04zm5.36 11.5c0.308 0 0.374-0.0844 0.441-0.38l1.37-7.43c0.0444-0.296 0-0.38-0.308-0.38h-3.31l-1.5 8.19z"/>
   <polygon points="50.2 62.9 49.3 67.5 45.2 67.5 46 62.9 43.1 52.7 47.5 52.7 48.7 59 52.3 52.7 56.9 52.7"/>
   <path transform="translate(-8e-5 -.047)" d="m56.3 64.7 1.65-9.04a3.19 3.19 0 0 1 3.5-2.87h5.84c1.98 0 2.73 0.93 2.36 2.87l-0.507 2.77h-4.14l0.374-1.96c0.0444-0.296-0.0219-0.38-0.33-0.38h-2.65c-0.286 0-0.396 0.0844-0.441 0.38l-1.37 7.43c-0.0663 0.296 0.0218 0.38 0.308 0.38h2.65c0.309 0 0.397-0.0844 0.463-0.38l0.353-1.96h4.14l-0.508 2.77a3.14 3.14 0 0 1-3.46 2.87h-5.84c-1.98 0-2.76-0.93-2.4-2.87"/>
   <path transform="translate(-8e-5 -.047)" d="m78.9 64.5h-4.39l-1.34 3.04h-4.34l7.27-14.8h5.42l1.9 14.8h-4.3zm-0.243-3.17-0.396-5.34-2.36 5.34z"/>
   <path transform="translate(-8e-5 -.047)" d="m99.6 55.6-0.706 3.84a3.02 3.02 0 0 1-2.53 2.79l1.68 5.28h-4.01l-1.67-4.94h-1.74l-0.904 4.94h-4.14l2.71-14.8h8.93c1.98 0 2.78 0.93 2.4 2.87m-5.22 3.84c0.286 0 0.396-0.0844 0.463-0.38l0.485-2.75c0.0663-0.295 0-0.38-0.286-0.38h-3.2l-0.661 3.51z"/>
   <path transform="translate(-8e-5 -.047)" d="m99.7 67.5a0.907 0.907 0 0 1-0.632-0.256 0.85 0.85 0 0 1-0.189-0.283 0.968 0.968 0 0 1 0-0.716 0.849 0.849 0 0 1 0.189-0.283 0.908 0.908 0 0 1 0.632-0.256 0.873 0.873 0 0 1 0.346 0.0693 0.898 0.898 0 0 1 0.282 0.187 0.849 0.849 0 0 1 0.189 0.283 0.978 0.978 0 0 1 0 0.716 0.85 0.85 0 0 1-0.189 0.283 0.898 0.898 0 0 1-0.282 0.187 0.873 0.873 0 0 1-0.346 0.0693m0-0.145a0.69 0.69 0 0 0 0.285-0.0572 0.726 0.726 0 0 0 0.227-0.157 0.712 0.712 0 0 0 0.15-0.237 0.808 0.808 0 0 0 0.0535-0.301 0.798 0.798 0 0 0-0.0535-0.296 0.728 0.728 0 0 0-0.15-0.237 0.711 0.711 0 0 0-0.227-0.157 0.678 0.678 0 0 0-0.285-0.058 0.71 0.71 0 0 0-0.514 0.215 0.706 0.706 0 0 0-0.151 0.237 0.798 0.798 0 0 0-0.0535 0.296 0.808 0.808 0 0 0 0.0535 0.301 0.691 0.691 0 0 0 0.151 0.237 0.702 0.702 0 0 0 0.514 0.215m-0.393-1.23h0.468a0.451 0.451 0 0 1 0.252 0.0701 0.237 0.237 0 0 1 0.107 0.212 0.219 0.219 0 0 1-0.159 0.226v0.0075a0.169 0.169 0 0 1 0.0927 0.0595 0.289 0.289 0 0 1 0.0444 0.103 0.948 0.948 0 0 1 0.0151 0.16c0 0.0497 9e-3 0.0791 0.0294 0.0889v0.0218h-0.274c-0.0121-0.0067-0.0203-0.0339-0.0241-0.0806-0.0038-0.0474-9e-3 -0.0926-0.0166-0.138a0.121 0.121 0 0 0-0.137-0.114h-0.115v0.333h-0.282zm0.423 0.419c0.0844 0 0.126-0.0331 0.126-0.1 0-0.0663-0.0414-0.1-0.126-0.1h-0.141v0.2z"/>
  </g>
 </g>
</svg>
