<?xml version="1.0" encoding="UTF-8" standalone="no"?>
<!-- Created with Inkscape (http://www.inkscape.org/) -->

<svg
   xmlns:dc="http://purl.org/dc/elements/1.1/"
   xmlns:cc="http://creativecommons.org/ns#"
   xmlns:rdf="http://www.w3.org/1999/02/22-rdf-syntax-ns#"
   xmlns:svg="http://www.w3.org/2000/svg"
   xmlns="http://www.w3.org/2000/svg"
   xmlns:sodipodi="http://sodipodi.sourceforge.net/DTD/sodipodi-0.dtd"
   xmlns:inkscape="http://www.inkscape.org/namespaces/inkscape"
   version="1.1"
   id="svg815"
   width="250"
   height="103.09048"
   viewBox="0 0 250 103.09048"
   sodipodi:docname="WEC Logo.svg"
   inkscape:version="0.92.4 (5da689c313, 2019-01-14)">
  <metadata
     id="metadata821">
    <rdf:RDF>
      <cc:Work
         rdf:about="">
        <dc:format>image/svg+xml</dc:format>
        <dc:type
           rdf:resource="http://purl.org/dc/dcmitype/StillImage" />
        <dc:title></dc:title>
      </cc:Work>
    </rdf:RDF>
  </metadata>
  <defs
     id="defs819" />
  <sodipodi:namedview
     pagecolor="#ddd"
     bordercolor="#ddd"
     borderopacity="1"
     objecttolerance="10"
     gridtolerance="10"
     guidetolerance="10"
     inkscape:pageopacity="0"
     inkscape:pageshadow="2"
     inkscape:window-width="1366"
     inkscape:window-height="705"
     id="namedview817"
     showgrid="false"
     fit-margin-top="0"
     fit-margin-left="0"
     fit-margin-right="0"
     fit-margin-bottom="0"
     inkscape:zoom="1.1573349"
     inkscape:cx="124.56191"
     inkscape:cy="-18.258448"
     inkscape:window-x="-8"
     inkscape:window-y="-8"
     inkscape:window-maximized="1"
     inkscape:current-layer="svg815" />
  <g
     id="g5137"
     transform="matrix(5.0009518,0,0,5.0009518,-32.491454,-55.771977)">
    <path
       sodipodi:nodetypes="cccczccccccccc"
       inkscape:connector-curvature="0"
       id="path5096"
       d="M 19.245823,13.315512 C 17.39582,12.330922 7.6562304,13.720547 6.9116945,22.518376 14.37312,23.263114 15.346911,21.64677 17.794749,20.723627 c -0.35761,0.689535 -0.947937,1.309255 -0.840095,2.138425 5.496141,0.549374 9.70326,-0.769 13.785202,-4.926014 4.081943,-4.157015 7.862691,-4.957601 11.046587,-5.422435 -3.054288,0.603593 -5.242224,1.498397 -5.64308,2.239003 l 6.906335,-0.229514 c 1.132651,-1.053927 2.615322,-2.075551 4.117553,-2.692604 -3.17349,-1.478808 -11.93541,-0.571828 -15.920187,3.041392 -4.194521,3.172822 -6.597758,4.937582 -10.855656,5.049838 l 1.374701,-3.169452 c -2.948574,1.697408 -5.2844,3.301121 -10.195703,3.0358 0.249504,-2.230361 2.154832,-4.013718 7.789976,-6.548926"
       style="fill:#ddd;fill-opacity:0.99595139;stroke:none;stroke-width:0.37795275;stroke-linecap:butt;stroke-linejoin:round;stroke-miterlimit:4;stroke-dasharray:none;stroke-opacity:1" />
    <path
       sodipodi:nodetypes="ccccc"
       inkscape:connector-curvature="0"
       id="path5098"
       d="m 35.409191,15.928399 6.690088,-0.0056 c -0.431306,0.900154 -0.964503,2.03236 -1.54558,2.433278 l -8.930365,-0.07078 c 0.7764,-0.787375 1.978237,-1.864158 3.785857,-2.356898 z"
       style="fill:#ddd;fill-opacity:0.99595139;stroke:none;stroke-width:0.37795275;stroke-linecap:butt;stroke-linejoin:round;stroke-miterlimit:4;stroke-dasharray:none;stroke-opacity:1" />
    <path
       sodipodi:nodetypes="ccccc"
       inkscape:connector-curvature="0"
       id="path5100"
       d="m 27.68225,22.289259 11.477655,-0.05728 c 0.536512,-0.329363 1.048477,-1.725906 1.394191,-2.532266 l -9.124174,-0.03259 c -0.839407,0.265924 -2.502462,1.544606 -3.747672,2.622137 z"
       style="fill:#ddd;fill-opacity:0.99595139;stroke:none;stroke-width:0.37795275;stroke-linecap:butt;stroke-linejoin:round;stroke-miterlimit:4;stroke-dasharray:none;stroke-opacity:1" />
    <path
       sodipodi:nodetypes="ccccc"
       inkscape:connector-curvature="0"
       id="path5102"
       d="m 52.761304,20.220961 c -0.648004,1.417733 -1.324655,2.33089 -5.022314,2.430152 -10.395566,-1.129731 -3.308995,-12.504294 8.748547,-10.503658 -0.247818,0.89045 -0.896706,1.788812 -1.431089,2.106132 -13.329621,1.086943 -10.916928,8.316528 -2.295144,5.967374 z"
       style="fill:#ddd;fill-opacity:0.99595139;stroke:#ddd;stroke-width:0;stroke-linecap:butt;stroke-linejoin:round;stroke-miterlimit:4;stroke-dasharray:none;stroke-opacity:1" />
    <g
       aria-label="FIA WORLD ENDURANCE
CHAMPIONSHIP"
       transform="scale(1.1363128,0.88003934)"
       style="font-style:normal;font-weight:normal;font-size:19.22872543px;line-height:0;font-family:sans-serif;letter-spacing:0px;word-spacing:0px;fill:#ddd;fill-opacity:0.99595139;stroke:none;stroke-width:1.44215441"
       id="text5106">
      <path
         d="M 6.3279501,32.164463 H 5.8528654 v -2.563204 h 1.6205458 v 0.396217 H 6.3279501 v 0.700421 h 0.9013465 v 0.38495 H 6.3279501 Z"
         style="font-style:normal;font-variant:normal;font-weight:bold;font-stretch:normal;font-size:3.84574485px;line-height:0;font-family:'Franklin Gothic Medium';-inkscape-font-specification:'Franklin Gothic Medium, Bold';fill:#ddd;fill-opacity:0.99595139;stroke-width:1.44215441"
         id="path5139"
         inkscape:connector-curvature="0" />
      <path
         d="m 8.2677228,32.164463 h -0.46194 v -2.563204 h 0.46194 z"
         style="font-style:normal;font-variant:normal;font-weight:bold;font-stretch:normal;font-size:3.84574485px;line-height:0;font-family:'Franklin Gothic Medium';-inkscape-font-specification:'Franklin Gothic Medium, Bold';fill:#ddd;fill-opacity:0.99595139;stroke-width:1.44215441"
         id="path5141"
         inkscape:connector-curvature="0" />
      <path
         d="M 10.845949,32.164463 H 10.352087 L 10.147406,31.554176 H 9.1615581 L 8.9606329,32.164463 H 8.5662939 L 9.4169396,29.601259 H 9.9859145 Z M 10.023471,31.184249 9.6497874,30.040665 9.2761042,31.184249 Z"
         style="font-style:normal;font-variant:normal;font-weight:bold;font-stretch:normal;font-size:3.84574485px;line-height:0;font-family:'Franklin Gothic Medium';-inkscape-font-specification:'Franklin Gothic Medium, Bold';fill:#ddd;fill-opacity:0.99595139;stroke-width:1.44215441"
         id="path5143"
         inkscape:connector-curvature="0" />
      <path
         d="m 15.194946,29.601259 -0.685399,2.563204 h -0.484474 l -0.510763,-1.885316 -0.463817,1.885316 h -0.475085 l -0.700421,-2.563204 h 0.490107 l 0.49574,1.868416 0.46194,-1.868416 h 0.467574 l 0.510763,1.868416 0.486351,-1.868416 z"
         style="font-style:normal;font-variant:normal;font-weight:bold;font-stretch:normal;font-size:3.84574485px;line-height:0;font-family:'Franklin Gothic Medium';-inkscape-font-specification:'Franklin Gothic Medium, Bold';fill:#ddd;fill-opacity:0.99595139;stroke-width:1.44215441"
         id="path5145"
         inkscape:connector-curvature="0" />
      <path
         d="m 16.456831,32.203897 q -0.510763,0 -0.796189,-0.383072 -0.283549,-0.383073 -0.283549,-0.946414 0,-0.559586 0.302327,-0.935147 0.302326,-0.377439 0.798067,-0.377439 0.499496,0 0.788678,0.377439 0.29106,0.375561 0.29106,0.94078 0,0.593387 -0.302327,0.959559 -0.300449,0.364294 -0.798067,0.364294 z m 0.0038,-0.371805 q 0.249748,0 0.422506,-0.206559 0.172758,-0.206559 0.172758,-0.749244 0,-0.441284 -0.142713,-0.691033 -0.142714,-0.251625 -0.443162,-0.251625 -0.593387,0 -0.593387,0.955802 0,0.463818 0.150225,0.704177 0.152102,0.238482 0.433773,0.238482 z"
         style="font-style:normal;font-variant:normal;font-weight:bold;font-stretch:normal;font-size:3.84574485px;line-height:0;font-family:'Franklin Gothic Medium';-inkscape-font-specification:'Franklin Gothic Medium, Bold';fill:#ddd;fill-opacity:0.99595139;stroke-width:1.44215441"
         id="path5147"
         inkscape:connector-curvature="0" />
      <path
         d="m 19.988982,32.164463 h -0.488229 l -0.398095,-1.053449 h -0.64972 v 1.053449 h -0.46194 v -2.563204 h 1.11166 q 0.463818,0 0.681643,0.210314 0.217826,0.208437 0.217826,0.540808 0,0.493863 -0.46194,0.679766 z m -1.536044,-1.423376 h 0.574608 q 0.249748,0 0.371805,-0.105157 0.122058,-0.105157 0.122058,-0.289182 0,-0.169003 -0.12018,-0.272282 -0.120179,-0.105157 -0.336127,-0.105157 h -0.612164 z"
         style="font-style:normal;font-variant:normal;font-weight:bold;font-stretch:normal;font-size:3.84574485px;line-height:0;font-family:'Franklin Gothic Medium';-inkscape-font-specification:'Franklin Gothic Medium, Bold';fill:#ddd;fill-opacity:0.99595139;stroke-width:1.44215441"
         id="path5149"
         inkscape:connector-curvature="0" />
      <path
         d="m 22.039545,32.164463 h -1.577356 v -2.563204 h 0.486351 v 2.144454 h 1.091005 z"
         style="font-style:normal;font-variant:normal;font-weight:bold;font-stretch:normal;font-size:3.84574485px;line-height:0;font-family:'Franklin Gothic Medium';-inkscape-font-specification:'Franklin Gothic Medium, Bold';fill:#ddd;fill-opacity:0.99595139;stroke-width:1.44215441"
         id="path5151"
         inkscape:connector-curvature="0" />
      <path
         d="m 22.364406,32.164463 v -2.563204 h 0.944536 q 0.523907,0 0.841256,0.371805 0.317349,0.369928 0.317349,0.914492 0,0.544563 -0.326738,0.910735 -0.326738,0.366172 -0.935147,0.366172 z m 0.475084,-0.377439 h 0.38495 q 0.309838,0 0.525786,-0.232848 0.215947,-0.232847 0.215947,-0.69291 0,-0.375561 -0.189658,-0.634698 -0.18778,-0.261015 -0.497618,-0.261015 H 22.83949 Z"
         style="font-style:normal;font-variant:normal;font-weight:bold;font-stretch:normal;font-size:3.84574485px;line-height:0;font-family:'Franklin Gothic Medium';-inkscape-font-specification:'Franklin Gothic Medium, Bold';fill:#ddd;fill-opacity:0.99595139;stroke-width:1.44215441"
         id="path5153"
         inkscape:connector-curvature="0" />
      <path
         d="m 27.520859,32.164463 h -1.665613 v -2.563204 h 1.648713 v 0.381195 h -1.186773 v 0.694787 h 0.953925 v 0.371806 h -0.953925 v 0.717321 h 1.203673 z"
         style="font-style:normal;font-variant:normal;font-weight:bold;font-stretch:normal;font-size:3.84574485px;line-height:0;font-family:'Franklin Gothic Medium';-inkscape-font-specification:'Franklin Gothic Medium, Bold';fill:#ddd;fill-opacity:0.99595139;stroke-width:1.44215441"
         id="path5155"
         inkscape:connector-curvature="0" />
      <path
         d="M 29.856849,32.164463 H 29.408054 L 28.43535,30.527017 Q 28.41282,30.489457 28.36212,30.40496 28.33959,30.3674 28.29264,30.286658 v 1.877805 h -0.371805 v -2.563204 h 0.510763 l 0.897591,1.509755 q 0.01127,0.01878 0.163369,0.276038 v -1.785793 h 0.364294 z"
         style="font-style:normal;font-variant:normal;font-weight:bold;font-stretch:normal;font-size:3.84574485px;line-height:0;font-family:'Franklin Gothic Medium';-inkscape-font-specification:'Franklin Gothic Medium, Bold';fill:#ddd;fill-opacity:0.99595139;stroke-width:1.44215441"
         id="path5157"
         inkscape:connector-curvature="0" />
      <path
         d="m 30.408923,32.164463 v -2.563204 h 0.944536 q 0.523908,0 0.841257,0.371805 0.317349,0.369928 0.317349,0.914492 0,0.544563 -0.326738,0.910735 -0.326738,0.366172 -0.935147,0.366172 z m 0.475085,-0.377439 h 0.38495 q 0.309838,0 0.525785,-0.232848 0.215948,-0.232847 0.215948,-0.69291 0,-0.375561 -0.189658,-0.634698 -0.187781,-0.261015 -0.497619,-0.261015 h -0.439406 z"
         style="font-style:normal;font-variant:normal;font-weight:bold;font-stretch:normal;font-size:3.84574485px;line-height:0;font-family:'Franklin Gothic Medium';-inkscape-font-specification:'Franklin Gothic Medium, Bold';fill:#ddd;fill-opacity:0.99595139;stroke-width:1.44215441"
         id="path5159"
         inkscape:connector-curvature="0" />
      <path
         d="m 34.697829,29.601259 v 1.646835 q 0,0.334249 -0.07511,0.514519 -0.07511,0.180269 -0.29106,0.311715 -0.214069,0.129569 -0.523907,0.129569 -0.313594,0 -0.516397,-0.112668 -0.200925,-0.112669 -0.289182,-0.30796 -0.08826,-0.19717 -0.08826,-0.501374 v -1.680636 h 0.471329 v 1.646835 q 0,0.338005 0.140835,0.44504 0.142713,0.105157 0.330494,0.105157 0.215947,0 0.345516,-0.112668 0.129568,-0.114546 0.129568,-0.437529 v -1.646835 z"
         style="font-style:normal;font-variant:normal;font-weight:bold;font-stretch:normal;font-size:3.84574485px;line-height:0;font-family:'Franklin Gothic Medium';-inkscape-font-specification:'Franklin Gothic Medium, Bold';fill:#ddd;fill-opacity:0.99595139;stroke-width:1.44215441"
         id="path5161"
         inkscape:connector-curvature="0" />
      <path
         d="m 37.227233,32.164463 h -0.488229 l -0.398095,-1.053449 h -0.649721 v 1.053449 h -0.46194 v -2.563204 h 1.111661 q 0.463818,0 0.681643,0.210314 0.217826,0.208437 0.217826,0.540808 0,0.493863 -0.461941,0.679766 z m -1.536045,-1.423376 h 0.574609 q 0.249748,0 0.371805,-0.105157 0.122057,-0.105157 0.122057,-0.289182 0,-0.169003 -0.120179,-0.272282 -0.12018,-0.105157 -0.336127,-0.105157 h -0.612165 z"
         style="font-style:normal;font-variant:normal;font-weight:bold;font-stretch:normal;font-size:3.84574485px;line-height:0;font-family:'Franklin Gothic Medium';-inkscape-font-specification:'Franklin Gothic Medium, Bold';fill:#ddd;fill-opacity:0.99595139;stroke-width:1.44215441"
         id="path5163"
         inkscape:connector-curvature="0" />
      <path
         d="m 39.711569,32.164463 h -0.493863 l -0.204681,-0.610287 h -0.985847 l -0.200925,0.610287 h -0.394339 l 0.850645,-2.563204 h 0.568975 z m -0.822479,-0.980214 -0.373683,-1.143584 -0.373683,1.143584 z"
         style="font-style:normal;font-variant:normal;font-weight:bold;font-stretch:normal;font-size:3.84574485px;line-height:0;font-family:'Franklin Gothic Medium';-inkscape-font-specification:'Franklin Gothic Medium, Bold';fill:#ddd;fill-opacity:0.99595139;stroke-width:1.44215441"
         id="path5165"
         inkscape:connector-curvature="0" />
      <path
         d="m 41.957423,32.164463 h -0.448795 l -0.972703,-1.637446 q -0.02253,-0.03756 -0.07323,-0.122057 -0.02253,-0.03756 -0.06948,-0.118302 v 1.877805 h -0.371806 v -2.563204 h 0.510763 l 0.897591,1.509755 q 0.01127,0.01878 0.163369,0.276038 v -1.785793 h 0.364294 z"
         style="font-style:normal;font-variant:normal;font-weight:bold;font-stretch:normal;font-size:3.84574485px;line-height:0;font-family:'Franklin Gothic Medium';-inkscape-font-specification:'Franklin Gothic Medium, Bold';fill:#ddd;fill-opacity:0.99595139;stroke-width:1.44215441"
         id="path5167"
         inkscape:connector-curvature="0" />
      <path
         d="m 43.955408,31.274383 0.428139,0.04695 q -0.04131,0.38495 -0.298571,0.634698 -0.255381,0.24787 -0.672254,0.24787 -0.35115,0 -0.570853,-0.176514 -0.217825,-0.176513 -0.336127,-0.47884 -0.118302,-0.302327 -0.118302,-0.666621 0,-0.585875 0.277916,-0.952047 0.277915,-0.36805 0.764266,-0.36805 0.381195,0 0.634698,0.234726 0.253504,0.234725 0.319227,0.672254 l -0.428139,0.04507 q -0.118302,-0.580241 -0.52203,-0.580241 -0.259137,0 -0.403728,0.242236 -0.142713,0.240359 -0.142713,0.698544 0,0.465696 0.15398,0.704177 0.15398,0.236603 0.407483,0.236603 0.202803,0 0.345516,-0.159613 0.142714,-0.159614 0.161492,-0.381195 z"
         style="font-style:normal;font-variant:normal;font-weight:bold;font-stretch:normal;font-size:3.84574485px;line-height:0;font-family:'Franklin Gothic Medium';-inkscape-font-specification:'Franklin Gothic Medium, Bold';fill:#ddd;fill-opacity:0.99595139;stroke-width:1.44215441"
         id="path5169"
         inkscape:connector-curvature="0" />
      <path
         d="m 46.41909,32.164463 h -1.665613 v -2.563204 h 1.648713 v 0.381195 h -1.186773 v 0.694787 h 0.953925 v 0.371806 h -0.953925 v 0.717321 h 1.203673 z"
         style="font-style:normal;font-variant:normal;font-weight:bold;font-stretch:normal;font-size:3.84574485px;line-height:0;font-family:'Franklin Gothic Medium';-inkscape-font-specification:'Franklin Gothic Medium, Bold';fill:#ddd;fill-opacity:0.99595139;stroke-width:1.44215441"
         id="path5171"
         inkscape:connector-curvature="0" />
      <path
         d="m 7.2856307,35.167095 0.4281396,0.04694 q -0.041312,0.384951 -0.298571,0.634699 -0.2553815,0.24787 -0.6722543,0.24787 -0.3511495,0 -0.5708527,-0.176514 -0.2178254,-0.176513 -0.3361271,-0.47884 -0.1183018,-0.302327 -0.1183018,-0.666621 0,-0.585875 0.2779152,-0.952047 0.2779152,-0.36805 0.7642667,-0.36805 0.3811944,0 0.6346981,0.234726 0.2535037,0.234725 0.3192269,0.672254 l -0.4281396,0.04507 q -0.1183017,-0.58024 -0.5220298,-0.58024 -0.2591371,0 -0.4037281,0.242237 -0.1427132,0.240359 -0.1427132,0.698544 0,0.465696 0.15398,0.704177 0.15398,0.236603 0.4074837,0.236603 0.202803,0 0.3455162,-0.159613 0.1427132,-0.159614 0.1614912,-0.381195 z"
         style="font-style:normal;font-variant:normal;font-weight:bold;font-stretch:normal;font-size:3.84574485px;line-height:0;font-family:'Franklin Gothic Medium';-inkscape-font-specification:'Franklin Gothic Medium, Bold';fill:#ddd;fill-opacity:0.99595139;stroke-width:1.44215441"
         id="path5173"
         inkscape:connector-curvature="0" />
      <path
         d="M 9.9859146,36.057175 H 9.5239745 V 34.943637 H 8.545638 v 1.113538 h -0.46194 v -2.563204 h 0.46194 v 1.053449 h 0.9783365 v -1.053449 h 0.4619401 z"
         style="font-style:normal;font-variant:normal;font-weight:bold;font-stretch:normal;font-size:3.84574485px;line-height:0;font-family:'Franklin Gothic Medium';-inkscape-font-specification:'Franklin Gothic Medium, Bold';fill:#ddd;fill-opacity:0.99595139;stroke-width:1.44215441"
         id="path5175"
         inkscape:connector-curvature="0" />
      <path
         d="m 12.558508,36.057175 h -0.493863 l -0.204681,-0.610287 h -0.985848 l -0.200925,0.610287 h -0.394339 l 0.850646,-2.563204 h 0.568975 z m -0.822479,-0.980214 -0.373683,-1.143584 -0.373684,1.143584 z"
         style="font-style:normal;font-variant:normal;font-weight:bold;font-stretch:normal;font-size:3.84574485px;line-height:0;font-family:'Franklin Gothic Medium';-inkscape-font-specification:'Franklin Gothic Medium, Bold';fill:#ddd;fill-opacity:0.99595139;stroke-width:1.44215441"
         id="path5177"
         inkscape:connector-curvature="0" />
      <path
         d="m 15.382726,36.057175 h -0.471329 v -2.243977 l -0.70981,2.243977 H 13.95935 l -0.713566,-2.243977 v 2.243977 H 12.868345 V 33.493971 H 13.5913 l 0.537053,1.650591 0.527663,-1.650591 h 0.72671 z"
         style="font-style:normal;font-variant:normal;font-weight:bold;font-stretch:normal;font-size:3.84574485px;line-height:0;font-family:'Franklin Gothic Medium';-inkscape-font-specification:'Franklin Gothic Medium, Bold';fill:#ddd;fill-opacity:0.99595139;stroke-width:1.44215441"
         id="path5179"
         inkscape:connector-curvature="0" />
      <path
         d="m 16.409886,36.057175 h -0.46194 v -2.563204 h 1.049693 q 0.448795,0 0.664743,0.227214 0.217825,0.225337 0.217825,0.533297 0,0.35115 -0.234725,0.568975 -0.234726,0.217825 -0.595265,0.217825 h -0.640331 z m 0,-1.412109 h 0.546441 q 0.21407,0 0.326738,-0.105158 0.112669,-0.105157 0.112669,-0.279793 0,-0.157735 -0.105158,-0.270403 -0.103279,-0.112669 -0.375561,-0.112669 h -0.505129 z"
         style="font-style:normal;font-variant:normal;font-weight:bold;font-stretch:normal;font-size:3.84574485px;line-height:0;font-family:'Franklin Gothic Medium';-inkscape-font-specification:'Franklin Gothic Medium, Bold';fill:#ddd;fill-opacity:0.99595139;stroke-width:1.44215441"
         id="path5181"
         inkscape:connector-curvature="0" />
      <path
         d="m 18.71583,36.057175 h -0.46194 v -2.563204 h 0.46194 z"
         style="font-style:normal;font-variant:normal;font-weight:bold;font-stretch:normal;font-size:3.84574485px;line-height:0;font-family:'Franklin Gothic Medium';-inkscape-font-specification:'Franklin Gothic Medium, Bold';fill:#ddd;fill-opacity:0.99595139;stroke-width:1.44215441"
         id="path5183"
         inkscape:connector-curvature="0" />
      <path
         d="m 20.227464,36.096609 q -0.510763,0 -0.79619,-0.383072 -0.283548,-0.383073 -0.283548,-0.946414 0,-0.559586 0.302326,-0.935147 0.302327,-0.377439 0.798068,-0.377439 0.499496,0 0.788678,0.377439 0.291059,0.375561 0.291059,0.94078 0,0.593387 -0.302326,0.959559 -0.300449,0.364294 -0.798067,0.364294 z m 0.0038,-0.371806 q 0.249748,0 0.422506,-0.206558 0.172759,-0.206559 0.172759,-0.749244 0,-0.441285 -0.142714,-0.691033 -0.142713,-0.251626 -0.443162,-0.251626 -0.593386,0 -0.593386,0.955803 0,0.463818 0.150224,0.704177 0.152103,0.238481 0.433773,0.238481 z"
         style="font-style:normal;font-variant:normal;font-weight:bold;font-stretch:normal;font-size:3.84574485px;line-height:0;font-family:'Franklin Gothic Medium';-inkscape-font-specification:'Franklin Gothic Medium, Bold';fill:#ddd;fill-opacity:0.99595139;stroke-width:1.44215441"
         id="path5185"
         inkscape:connector-curvature="0" />
      <path
         d="m 23.697647,36.057175 h -0.448795 l -0.972703,-1.637446 q -0.02253,-0.03756 -0.07324,-0.122057 -0.02253,-0.03756 -0.06948,-0.118302 v 1.877805 H 21.76163 v -2.563204 h 0.510763 l 0.897591,1.509755 q 0.01127,0.01878 0.163369,0.276038 v -1.785793 h 0.364294 z"
         style="font-style:normal;font-variant:normal;font-weight:bold;font-stretch:normal;font-size:3.84574485px;line-height:0;font-family:'Franklin Gothic Medium';-inkscape-font-specification:'Franklin Gothic Medium, Bold';fill:#ddd;fill-opacity:0.99595139;stroke-width:1.44215441"
         id="path5187"
         inkscape:connector-curvature="0" />
      <path
         d="m 23.994341,35.439377 0.448795,-0.09577 q 0.08075,0.381194 0.619676,0.381194 0.245993,0 0.377439,-0.09764 0.133324,-0.09765 0.133324,-0.242237 0,-0.105157 -0.06009,-0.193414 -0.06009,-0.09014 -0.257259,-0.140836 l -0.490107,-0.12769 q -0.251626,-0.06572 -0.371805,-0.148347 -0.12018,-0.0845 -0.193414,-0.236603 -0.07136,-0.152103 -0.07136,-0.324861 0,-0.343638 0.255382,-0.550197 0.255381,-0.208436 0.653476,-0.208436 0.330493,0 0.58963,0.144591 0.261015,0.144591 0.332372,0.409362 l -0.439406,0.108912 q -0.101402,-0.29106 -0.473207,-0.29106 -0.215948,0 -0.330494,0.09014 -0.112668,0.09013 -0.112668,0.229092 0,0.219704 0.356783,0.30796 l 0.43565,0.108913 q 0.396217,0.09952 0.531419,0.294816 0.135202,0.193413 0.135202,0.428139 0,0.377439 -0.285426,0.595264 -0.283549,0.215948 -0.7361,0.215948 -0.381194,0 -0.668498,-0.159614 -0.285427,-0.159613 -0.379317,-0.497618 z"
         style="font-style:normal;font-variant:normal;font-weight:bold;font-stretch:normal;font-size:3.84574485px;line-height:0;font-family:'Franklin Gothic Medium';-inkscape-font-specification:'Franklin Gothic Medium, Bold';fill:#ddd;fill-opacity:0.99595139;stroke-width:1.44215441"
         id="path5189"
         inkscape:connector-curvature="0" />
      <path
         d="m 28.36587,36.057175 h -0.46194 v -1.113538 h -0.978336 v 1.113538 h -0.46194 v -2.563204 h 0.46194 v 1.053449 h 0.978336 v -1.053449 h 0.46194 z"
         style="font-style:normal;font-variant:normal;font-weight:bold;font-stretch:normal;font-size:3.84574485px;line-height:0;font-family:'Franklin Gothic Medium';-inkscape-font-specification:'Franklin Gothic Medium, Bold';fill:#ddd;fill-opacity:0.99595139;stroke-width:1.44215441"
         id="path5191"
         inkscape:connector-curvature="0" />
      <path
         d="m 29.389274,36.057175 h -0.46194 v -2.563204 h 0.46194 z"
         style="font-style:normal;font-variant:normal;font-weight:bold;font-stretch:normal;font-size:3.84574485px;line-height:0;font-family:'Franklin Gothic Medium';-inkscape-font-specification:'Franklin Gothic Medium, Bold';fill:#ddd;fill-opacity:0.99595139;stroke-width:1.44215441"
         id="path5193"
         inkscape:connector-curvature="0" />
      <path
         d="m 30.418312,36.057175 h -0.46194 v -2.563204 h 1.049693 q 0.448795,0 0.664743,0.227214 0.217825,0.225337 0.217825,0.533297 0,0.35115 -0.234726,0.568975 -0.234725,0.217825 -0.595264,0.217825 h -0.640331 z m 0,-1.412109 h 0.546441 q 0.21407,0 0.326738,-0.105158 0.112668,-0.105157 0.112668,-0.279793 0,-0.157735 -0.105157,-0.270403 -0.103279,-0.112669 -0.375561,-0.112669 h -0.505129 z"
         style="font-style:normal;font-variant:normal;font-weight:bold;font-stretch:normal;font-size:3.84574485px;line-height:0;font-family:'Franklin Gothic Medium';-inkscape-font-specification:'Franklin Gothic Medium, Bold';fill:#ddd;fill-opacity:0.99595139;stroke-width:1.44215441"
         id="path5195"
         inkscape:connector-curvature="0" />
    </g>
  </g>
  <text
     xml:space="preserve"
     style="font-style:normal;font-weight:normal;font-size:13.33333302px;line-height:1.25;font-family:sans-serif;letter-spacing:0px;word-spacing:0px;fill:#ddd;fill-opacity:0.99595139;stroke:none"
     x="1.173708"
     y="108.40079"
     id="text5116"><tspan
       sodipodi:role="line"
       id="tspan5114"
       x="1.173708"
       y="120.19767"
       style="font-style:normal;font-variant:normal;font-weight:normal;font-stretch:normal;font-size:2.66666675px;font-family:'Nachlieli CLM';-inkscape-font-specification:'Nachlieli CLM';fill:#ddd;fill-opacity:0.99595139" /></text>
</svg>
